<svg width="100%" height="100%" viewBox="0 0 196 121" xmlns="http://www.w3.org/2000/svg" xmlns:xlink="http://www.w3.org/1999/xlink" xml:space="preserve" xmlns:serif="http://www.serif.com/" style="fill-rule:evenodd;clip-rule:evenodd;stroke-linejoin:round;stroke-miterlimit:2;">
  <g transform="matrix(1,0,0,1,-0.84,-38.4)">
    <g id="A" transform="matrix(160,0,0,160,1,148)">
      <path d="M0.829,-0.246L0.776,-0.091C0.769,-0.069 0.759,-0.054 0.748,-0.047C0.736,-0.04 0.721,-0.036 0.704,-0.036L0.682,-0.036C0.677,-0.036 0.674,-0.033 0.673,-0.028L0.67,-0.007C0.67,-0 0.673,0.003 0.679,0.003C0.684,0.003 0.69,0.003 0.698,0.002C0.717,0.001 0.735,0.001 0.751,0.001C0.767,0 0.789,-0 0.816,-0C0.848,-0 0.875,0 0.898,0.001C0.92,0.002 0.938,0.002 0.952,0.003L0.967,0.003C0.975,0.003 0.979,0 0.98,-0.005L0.983,-0.029C0.983,-0.034 0.98,-0.036 0.975,-0.036L0.939,-0.036C0.921,-0.036 0.912,-0.045 0.912,-0.064C0.912,-0.077 0.916,-0.096 0.924,-0.12L1.071,-0.579C1.079,-0.604 1.086,-0.62 1.093,-0.629C1.099,-0.638 1.107,-0.642 1.117,-0.642C1.124,-0.642 1.132,-0.64 1.139,-0.636C1.146,-0.631 1.152,-0.627 1.155,-0.622C1.16,-0.615 1.165,-0.61 1.171,-0.606C1.177,-0.602 1.184,-0.6 1.193,-0.6C1.201,-0.6 1.208,-0.602 1.213,-0.607C1.218,-0.612 1.221,-0.617 1.221,-0.623C1.221,-0.642 1.209,-0.657 1.185,-0.668C1.161,-0.679 1.13,-0.685 1.092,-0.685C1.049,-0.685 1.014,-0.679 0.986,-0.668C0.957,-0.657 0.929,-0.639 0.902,-0.615C0.881,-0.597 0.85,-0.564 0.811,-0.517C0.772,-0.469 0.722,-0.407 0.663,-0.33C0.626,-0.282 0.591,-0.24 0.559,-0.205C0.527,-0.169 0.494,-0.137 0.46,-0.11C0.425,-0.083 0.389,-0.062 0.352,-0.047C0.314,-0.032 0.275,-0.024 0.234,-0.024C0.212,-0.024 0.19,-0.027 0.168,-0.032C0.146,-0.037 0.125,-0.045 0.106,-0.057C0.087,-0.068 0.071,-0.084 0.059,-0.105C0.047,-0.126 0.041,-0.151 0.041,-0.181C0.041,-0.199 0.044,-0.215 0.05,-0.229C0.055,-0.243 0.062,-0.255 0.071,-0.264C0.079,-0.273 0.087,-0.28 0.095,-0.285C0.103,-0.29 0.11,-0.292 0.116,-0.292C0.123,-0.292 0.13,-0.291 0.136,-0.289C0.142,-0.286 0.149,-0.281 0.157,-0.273L0.16,-0.27C0.167,-0.263 0.173,-0.258 0.18,-0.254C0.186,-0.25 0.194,-0.248 0.203,-0.248C0.219,-0.248 0.232,-0.253 0.243,-0.262C0.253,-0.271 0.258,-0.285 0.258,-0.302C0.258,-0.314 0.252,-0.326 0.24,-0.339C0.227,-0.352 0.207,-0.358 0.18,-0.358C0.153,-0.358 0.129,-0.353 0.106,-0.342C0.083,-0.331 0.064,-0.317 0.049,-0.298C0.033,-0.279 0.021,-0.258 0.012,-0.233C0.003,-0.208 -0.001,-0.183 -0.001,-0.156C-0.001,-0.119 0.005,-0.086 0.018,-0.057C0.03,-0.028 0.047,-0.005 0.068,0.014C0.089,0.033 0.112,0.047 0.138,0.056C0.163,0.065 0.189,0.07 0.216,0.07C0.27,0.07 0.322,0.059 0.373,0.036C0.423,0.013 0.473,-0.025 0.523,-0.079C0.543,-0.1 0.563,-0.124 0.583,-0.15C0.603,-0.175 0.624,-0.203 0.647,-0.234C0.647,-0.234 0.65,-0.238 0.656,-0.246L0.829,-0.246ZM0.686,-0.284C0.7,-0.305 0.718,-0.331 0.74,-0.361C0.761,-0.391 0.784,-0.422 0.808,-0.453C0.831,-0.484 0.853,-0.511 0.872,-0.535C0.89,-0.558 0.905,-0.573 0.914,-0.582C0.919,-0.587 0.924,-0.591 0.929,-0.594C0.934,-0.596 0.937,-0.598 0.939,-0.598C0.944,-0.598 0.947,-0.594 0.947,-0.587C0.947,-0.584 0.946,-0.581 0.945,-0.578L0.843,-0.284L0.686,-0.284Z" style="fill:rgb(44,193,255);fill-rule:nonzero;"/>
    </g>
  </g>
</svg>
